{"accessors":[{"bufferView":0,"byteOffset":0,"componentType":5123,"count":4128,"max":[4127],"min":[0],"name":"buffer-0-accessor-indices-buffer-0-mesh-0","type":"SCALAR"},{"bufferView":2,"byteOffset":0,"componentType":5126,"count":4128,"max":[8.387530326843262,13.88550472259521,4.870529174804688],"min":[-8.423896789550781,0,-4.423410892486572],"name":"buffer-0-accessor-position-buffer-0-mesh-0","type":"VEC3"},{"bufferView":2,"byteOffset":49536,"componentType":5126,"count":4128,"max":[0.999413013458252,0.998790979385376,0.9992669820785522],"min":[-0.9976760149002075,-1,-0.9997680187225342],"name":"buffer-0-accessor-normal-buffer-0-mesh-0","type":"VEC3"},{"bufferView":1,"byteOffset":0,"componentType":5126,"count":4128,"max":[0.9960399866104126,0],"min":[-0.002251999918371439,-0.9899049997329712],"name":"buffer-0-accessor-texcoord-buffer-0-mesh-0","type":"VEC2"},{"bufferView":3,"byteOffset":0,"componentType":5126,"count":0,"max":[0,0,0,0],"min":[0,0,0,0],"name":"buffer-0-accessor-color-buffer-0-mesh-0","type":"VEC4"}],"asset":{"generator":"Obj2GltfConverter","version":"2.0"},"bufferViews":[{"buffer":0,"byteLength":8256,"byteOffset":0,"byteStride":0,"name":"buffer-0-bufferview-ushort","target":34963},{"buffer":0,"byteLength":33024,"byteOffset":8256,"byteStride":8,"name":"buffer-0-bufferview-vec2","target":34962},{"buffer":0,"byteLength":99072,"byteOffset":41280,"byteStride":12,"name":"buffer-0-bufferview-vec3","target":34962},{"buffer":0,"byteLength":1,"byteOffset":0,"name":"buffer-0-bufferview-vec4"}],"buffers":[{"byteLength":140352,"name":"buffer-0","uri":"data:application/octet-stream;base64,"}],"images":[{"mimeType":"image/png","name":"AshTree_mat-image","uri":"data:application/octet-stream;base64,"}],"materials":[{"alphaMode":"OPAQUE","doubleSided":true,"name":"AshTree_mat","pbrMetallicRoughness":{"baseColorFactor":[2,2,2,1],"baseColorTexture":{"index":0,"texCoord":0},"metallicFactor":0,"roughnessFactor":0.9699476628648295}}],"meshes":[{"name":"buffer-0-mesh-0","primitives":[{"attributes":{"NORMAL":2,"POSITION":1,"TEXCOORD_0":3},"indices":0,"material":0,"mode":4}]}],"nodes":[{"mesh":0,"name":"node-0"}],"samplers":[{"name":"AshTree_mat-sampler","wrapS":10497,"wrapT":10497}],"scenes":[{"name":"scene-0","nodes":[0]}],"textures":[{"name":"AshTree_mat-texture","sampler":0,"source":0}]}